<svg id="visual" viewBox="0 0 960 540" width="960" height="540" xmlns="http://www.w3.org/2000/svg" xmlns:xlink="http://www.w3.org/1999/xlink" version="1.1"><path d="M0 365L22.8 357.5C45.7 350 91.3 335 137 333.3C182.7 331.7 228.3 343.3 274 345C319.7 346.7 365.3 338.3 411.2 335.5C457 332.7 503 335.3 548.8 345.5C594.7 355.7 640.3 373.3 686 379.7C731.7 386 777.3 381 823 373.3C868.7 365.7 914.3 355.3 937.2 350.2L960 345L960 541L937.2 541C914.3 541 868.7 541 823 541C777.3 541 731.7 541 686 541C640.3 541 594.7 541 548.8 541C503 541 457 541 411.2 541C365.3 541 319.7 541 274 541C228.3 541 182.7 541 137 541C91.3 541 45.7 541 22.8 541L0 541Z" fill="#5a58c2"></path><path d="M0 363L22.8 367.3C45.7 371.7 91.3 380.3 137 390.8C182.7 401.3 228.3 413.7 274 415.3C319.7 417 365.3 408 411.2 405.5C457 403 503 407 548.8 404.7C594.7 402.3 640.3 393.7 686 390C731.7 386.3 777.3 387.7 823 394.5C868.7 401.3 914.3 413.7 937.2 419.8L960 426L960 541L937.2 541C914.3 541 868.7 541 823 541C777.3 541 731.7 541 686 541C640.3 541 594.7 541 548.8 541C503 541 457 541 411.2 541C365.3 541 319.7 541 274 541C228.3 541 182.7 541 137 541C91.3 541 45.7 541 22.8 541L0 541Z" fill="#3377d5"></path><path d="M0 417L22.8 415.2C45.7 413.3 91.3 409.7 137 406.7C182.7 403.7 228.3 401.3 274 406.3C319.7 411.3 365.3 423.7 411.2 428C457 432.3 503 428.7 548.8 432.3C594.7 436 640.3 447 686 444C731.7 441 777.3 424 823 413.8C868.7 403.7 914.3 400.3 937.2 398.7L960 397L960 541L937.2 541C914.3 541 868.7 541 823 541C777.3 541 731.7 541 686 541C640.3 541 594.7 541 548.8 541C503 541 457 541 411.2 541C365.3 541 319.7 541 274 541C228.3 541 182.7 541 137 541C91.3 541 45.7 541 22.8 541L0 541Z" fill="#0091de"></path><path d="M0 455L22.8 459.3C45.7 463.7 91.3 472.3 137 472.3C182.7 472.3 228.3 463.7 274 457.7C319.7 451.7 365.3 448.3 411.2 453C457 457.7 503 470.3 548.8 475.3C594.7 480.3 640.3 477.7 686 476.5C731.7 475.3 777.3 475.7 823 475.7C868.7 475.7 914.3 475.3 937.2 475.2L960 475L960 541L937.2 541C914.3 541 868.7 541 823 541C777.3 541 731.7 541 686 541C640.3 541 594.7 541 548.8 541C503 541 457 541 411.2 541C365.3 541 319.7 541 274 541C228.3 541 182.7 541 137 541C91.3 541 45.7 541 22.8 541L0 541Z" fill="#1fa9e0"></path><path d="M0 493L22.8 496.2C45.7 499.3 91.3 505.7 137 508C182.7 510.3 228.3 508.7 274 506C319.7 503.3 365.3 499.7 411.2 496.8C457 494 503 492 548.8 492.2C594.7 492.3 640.3 494.7 686 491.8C731.7 489 777.3 481 823 478.7C868.7 476.3 914.3 479.7 937.2 481.3L960 483L960 541L937.2 541C914.3 541 868.7 541 823 541C777.3 541 731.7 541 686 541C640.3 541 594.7 541 548.8 541C503 541 457 541 411.2 541C365.3 541 319.7 541 274 541C228.3 541 182.7 541 137 541C91.3 541 45.7 541 22.8 541L0 541Z" fill="#52bedf"></path></svg>