<?xml version="1.0" standalone="no"?><svg xmlns="http://www.w3.org/2000/svg" viewBox="0 0 1440 320"><path fill="#ffd700" fill-opacity="0.8" d="M0,192L34.3,192C68.6,192,137,192,206,186.7C274.3,181,343,171,411,170.7C480,171,549,181,617,208C685.7,235,754,277,823,277.3C891.4,277,960,235,1029,208C1097.1,181,1166,171,1234,165.3C1302.9,160,1371,160,1406,160L1440,160L1440,320L1405.7,320C1371.4,320,1303,320,1234,320C1165.7,320,1097,320,1029,320C960,320,891,320,823,320C754.3,320,686,320,617,320C548.6,320,480,320,411,320C342.9,320,274,320,206,320C137.1,320,69,320,34,320L0,320Z"></path></svg>